<svg width="24" height="24" viewBox="0 0 24 24" fill="none" xmlns="http://www.w3.org/2000/svg">
<path fill-rule="evenodd" clip-rule="evenodd" d="M9.8 2.25H9.7679H9.76788C8.95505 2.24999 8.29944 2.24999 7.76853 2.29336C7.2219 2.33803 6.74175 2.43239 6.29754 2.65873C5.59193 3.01825 5.01825 3.59193 4.65873 4.29754C4.50638 4.59653 4.41383 4.91181 4.35597 5.25268C4.17206 5.2553 4.00523 5.2605 3.85464 5.27077C3.53754 5.29241 3.23801 5.33905 2.94762 5.45933C2.27379 5.73844 1.73844 6.27379 1.45933 6.94762C1.33905 7.23801 1.29241 7.53754 1.27077 7.85464C1.24999 8.15925 1.24999 8.53028 1.25 8.97474V8.97475V9L1.25 15V15.0253V15.0253C1.24999 15.4697 1.24999 15.8408 1.27077 16.1454C1.29241 16.4625 1.33905 16.762 1.45933 17.0524C1.73844 17.7262 2.27379 18.2616 2.94762 18.5407C3.23801 18.661 3.53754 18.7076 3.85464 18.7292C4.00523 18.7395 4.17206 18.7447 4.35597 18.7473C4.41383 19.0882 4.50638 19.4035 4.65873 19.7025C5.01825 20.4081 5.59193 20.9817 6.29754 21.3413C6.74175 21.5676 7.2219 21.662 7.76853 21.7066C8.29944 21.75 8.95505 21.75 9.76788 21.75H9.8H14.2H14.2321C15.045 21.75 15.7006 21.75 16.2315 21.7066C16.7781 21.662 17.2582 21.5676 17.7025 21.3413C18.4081 20.9817 18.9818 20.4081 19.3413 19.7025C19.4936 19.4035 19.5862 19.0882 19.644 18.7473C19.8279 18.7447 19.9948 18.7395 20.1454 18.7292C20.4625 18.7076 20.762 18.661 21.0524 18.5407C21.7262 18.2616 22.2616 17.7262 22.5407 17.0524C22.661 16.762 22.7076 16.4625 22.7292 16.1454C22.75 15.8408 22.75 15.4697 22.75 15.0253V15V9V8.97475C22.75 8.53029 22.75 8.15925 22.7292 7.85464C22.7076 7.53754 22.661 7.23801 22.5407 6.94762C22.2616 6.27379 21.7262 5.73844 21.0524 5.45933C20.762 5.33905 20.4625 5.29241 20.1454 5.27077C19.9948 5.2605 19.8279 5.2553 19.644 5.25268C19.5862 4.91181 19.4936 4.59653 19.3413 4.29754C18.9818 3.59193 18.4081 3.01825 17.7025 2.65873C17.2582 2.43239 16.7781 2.33803 16.2315 2.29336C15.7006 2.24999 15.045 2.24999 14.2321 2.25H14.2321H14.2L9.8 2.25ZM19.7459 6.75476C19.75 7.06207 19.75 7.39876 19.75 7.76788V7.8V16.2V16.2321C19.75 16.6012 19.75 16.9379 19.7459 17.2452C19.8569 17.2427 19.9547 17.2388 20.0433 17.2327C20.284 17.2163 20.4012 17.1868 20.4784 17.1549C20.7846 17.028 21.028 16.7846 21.1549 16.4784C21.1868 16.4012 21.2163 16.284 21.2327 16.0433C21.2496 15.7958 21.25 15.4762 21.25 15V9C21.25 8.5238 21.2496 8.20421 21.2327 7.95674C21.2163 7.71602 21.1868 7.5988 21.1549 7.52165C21.028 7.21536 20.7846 6.97202 20.4784 6.84515C20.4012 6.81319 20.284 6.78372 20.0433 6.76729C19.9547 6.76125 19.8569 6.75732 19.7459 6.75476ZM3.95674 6.76729C4.04532 6.76125 4.14313 6.75732 4.25405 6.75476C4.24999 7.06207 4.25 7.39877 4.25 7.76788V7.7679L4.25 7.8L4.25 16.2L4.25 16.2321V16.2321C4.25 16.6012 4.24999 16.9379 4.25405 17.2452C4.14313 17.2427 4.04532 17.2388 3.95674 17.2327C3.71602 17.2163 3.5988 17.1868 3.52165 17.1549C3.21536 17.028 2.97202 16.7846 2.84515 16.4784C2.81319 16.4012 2.78372 16.284 2.76729 16.0433C2.75041 15.7958 2.75 15.4762 2.75 15L2.75 9C2.75 8.5238 2.75041 8.20421 2.76729 7.95674C2.78372 7.71602 2.81319 7.5988 2.84515 7.52165C2.97202 7.21536 3.21536 6.97202 3.52165 6.84515C3.5988 6.81319 3.71602 6.78372 3.95674 6.76729ZM6.97852 3.99524C7.17604 3.8946 7.4368 3.82547 7.89068 3.78838C8.35331 3.75058 8.94755 3.75 9.8 3.75L14.2 3.75C15.0525 3.75 15.6467 3.75058 16.1093 3.78838C16.5632 3.82547 16.824 3.8946 17.0215 3.99524C17.4448 4.21095 17.789 4.55516 18.0048 4.97852C18.1054 5.17604 18.1745 5.4368 18.2116 5.89068C18.2494 6.35331 18.25 6.94755 18.25 7.8V16.2C18.25 17.0525 18.2494 17.6467 18.2116 18.1093C18.1745 18.5632 18.1054 18.824 18.0048 19.0215C17.789 19.4448 17.4448 19.789 17.0215 20.0048C16.824 20.1054 16.5632 20.1745 16.1093 20.2116C15.6467 20.2494 15.0525 20.25 14.2 20.25H9.8C8.94755 20.25 8.35331 20.2494 7.89068 20.2116C7.4368 20.1745 7.17604 20.1054 6.97852 20.0048C6.55516 19.789 6.21095 19.4448 5.99524 19.0215C5.8946 18.824 5.82547 18.5632 5.78838 18.1093C5.75058 17.6467 5.75 17.0525 5.75 16.2L5.75 7.8C5.75 6.94755 5.75058 6.35331 5.78838 5.89068C5.82547 5.4368 5.8946 5.17604 5.99524 4.97852C6.21095 4.55516 6.55516 4.21095 6.97852 3.99524ZM9 6.25C8.58579 6.25 8.25 6.58579 8.25 7C8.25 7.41421 8.58579 7.75 9 7.75L15 7.75C15.4142 7.75 15.75 7.41421 15.75 7C15.75 6.58579 15.4142 6.25 15 6.25L9 6.25ZM8.25 11C8.25 10.5858 8.58579 10.25 9 10.25L13 10.25C13.4142 10.25 13.75 10.5858 13.75 11C13.75 11.4142 13.4142 11.75 13 11.75L9 11.75C8.58579 11.75 8.25 11.4142 8.25 11ZM9 14.25C8.58579 14.25 8.25 14.5858 8.25 15C8.25 15.4142 8.58579 15.75 9 15.75L11 15.75C11.4142 15.75 11.75 15.4142 11.75 15C11.75 14.5858 11.4142 14.25 11 14.25L9 14.25Z" fill="#151E28"/>
</svg>
