<svg width="24" height="24" viewBox="0 0 24 24" fill="none" xmlns="http://www.w3.org/2000/svg">
<path fill-rule="evenodd" clip-rule="evenodd" d="M7.16957 2.25L7.2 2.25L14.8 2.25H14.8304H14.8304C15.3646 2.24999 15.8104 2.24998 16.1747 2.27974C16.5546 2.31078 16.9112 2.37789 17.2485 2.54973C17.7659 2.81338 18.1866 3.23408 18.4503 3.75153C18.6221 4.08879 18.6892 4.44545 18.7203 4.82533C18.75 5.18956 18.75 5.6354 18.75 6.16955V6.2V6.25008C19.0593 6.25102 19.3105 6.25789 19.5365 6.30283C20.6274 6.51983 21.4802 7.3726 21.6972 8.46349C21.7504 8.731 21.7502 9.03399 21.75 9.42672L21.75 9.49999L21.75 9.57327C21.7502 9.96599 21.7504 10.269 21.6972 10.5365C21.4802 11.6274 20.6274 12.4802 19.5365 12.6972C19.3045 12.7433 19.0459 12.7493 18.7253 12.75C18.7173 12.9398 18.7068 13.119 18.693 13.2883C18.6347 14.0017 18.5131 14.6053 18.2323 15.1565C17.7769 16.0502 17.0502 16.7769 16.1565 17.2323C15.6053 17.5131 15.0017 17.6347 14.2883 17.693C13.5907 17.75 12.7252 17.75 11.6331 17.75H11.633H11.633H11.6L10.4 17.75H10.367H10.367H10.367C9.27483 17.75 8.40935 17.75 7.71174 17.693C6.99835 17.6347 6.39472 17.5131 5.84355 17.2323C4.94978 16.7769 4.22312 16.0502 3.76772 15.1565C3.48688 14.6053 3.36528 14.0017 3.30699 13.2883C3.24999 12.5906 3.25 11.7251 3.25 10.633L3.25 10.6L3.25 6.2L3.25 6.16957C3.24999 5.63541 3.24998 5.18957 3.27974 4.82533C3.31078 4.44545 3.37789 4.08879 3.54973 3.75153C3.81338 3.23408 4.23408 2.81339 4.75153 2.54973C5.08879 2.37789 5.44544 2.31078 5.82533 2.27974C6.18955 2.24998 6.63537 2.24999 7.1695 2.25H7.16957ZM18.7496 11.2495C19.053 11.248 19.1609 11.2425 19.2439 11.226C19.7397 11.1273 20.1273 10.7397 20.226 10.2439C20.2464 10.1414 20.25 10.0006 20.25 9.49999C20.25 8.99939 20.2464 8.85862 20.226 8.75613C20.1273 8.26027 19.7397 7.87265 19.2439 7.77401C19.161 7.75753 19.053 7.752 18.75 7.75048L18.75 10.6V10.633C18.75 10.8471 18.75 11.0524 18.7496 11.2495ZM17.25 6.9979C17.25 6.9986 17.25 6.9993 17.25 6.99999C17.25 7.00069 17.25 7.00139 17.25 7.00209V10.6C17.25 11.7325 17.2494 12.5367 17.198 13.1661C17.1473 13.7867 17.0509 14.171 16.8958 14.4755C16.5842 15.087 16.087 15.5842 15.4755 15.8958C15.171 16.0509 14.7867 16.1473 14.1661 16.198C13.5367 16.2494 12.7325 16.25 11.6 16.25L10.4 16.25C9.26752 16.25 8.46327 16.2494 7.83388 16.198C7.21326 16.1473 6.82901 16.0509 6.52453 15.8958C5.91301 15.5842 5.41582 15.087 5.10423 14.4755C4.94909 14.171 4.85272 13.7867 4.80201 13.1661C4.75058 12.5367 4.75 11.7325 4.75 10.6L4.75 6.2C4.75 5.62757 4.75058 5.24336 4.77476 4.94748C4.79822 4.66036 4.8401 4.52308 4.88624 4.43251C5.00608 4.19731 5.19731 4.00609 5.43251 3.88624C5.52307 3.8401 5.66035 3.79822 5.94748 3.77476C6.24336 3.75059 6.62757 3.75 7.2 3.75L14.8 3.75C15.3724 3.75 15.7566 3.75058 16.0525 3.77476C16.3396 3.79822 16.4769 3.8401 16.5675 3.88624C16.8027 4.00608 16.9939 4.19731 17.1138 4.43251C17.1599 4.52307 17.2018 4.66035 17.2252 4.94748C17.2494 5.24336 17.25 5.62757 17.25 6.2V6.9979ZM2.25 21C2.25 20.5858 2.58579 20.25 3 20.25L21 20.25C21.4142 20.25 21.75 20.5858 21.75 21C21.75 21.4142 21.4142 21.75 21 21.75L3 21.75C2.58579 21.75 2.25 21.4142 2.25 21Z" fill="#151E28"/>
</svg>
