<svg width="24" height="24" viewBox="0 0 24 24" fill="none" xmlns="http://www.w3.org/2000/svg">
<path fill-rule="evenodd" clip-rule="evenodd" d="M1 1.25C0.585786 1.25 0.25 1.58579 0.25 2C0.25 2.41421 0.585786 2.75 1 2.75H1.78428C2.77204 2.75 3.64429 3.39423 3.93478 4.33831L6.63155 13.1028C7.1157 14.6763 8.56946 15.75 10.2157 15.75H16.7679C18.4239 15.75 19.8839 14.6637 20.3598 13.0776L21.946 7.79021C22.4753 6.02577 21.1541 4.25 19.3119 4.25H5.5C5.49234 4.25 5.48471 4.25011 5.47711 4.25034L5.36845 3.89718C4.8843 2.32371 3.43054 1.25 1.78428 1.25H1ZM8.06522 12.6617L5.93855 5.75H19.3119C20.1493 5.75 20.7498 6.55717 20.5092 7.35918L18.923 12.6465C18.6375 13.5982 17.7615 14.25 16.7679 14.25H10.2157C9.22796 14.25 8.35571 13.6058 8.06522 12.6617ZM10 18.7499C9.30964 18.7499 8.75 19.3096 8.75 19.9999C8.75 20.6903 9.30964 21.2499 10 21.2499C10.6904 21.2499 11.25 20.6903 11.25 19.9999C11.25 19.3096 10.6904 18.7499 10 18.7499ZM7.25 19.9999C7.25 18.4812 8.48122 17.2499 10 17.2499C11.5188 17.2499 12.75 18.4812 12.75 19.9999C12.75 21.5187 11.5188 22.7499 10 22.7499C8.48122 22.7499 7.25 21.5187 7.25 19.9999ZM18 18.7499C17.3096 18.7499 16.75 19.3096 16.75 19.9999C16.75 20.6903 17.3096 21.2499 18 21.2499C18.6904 21.2499 19.25 20.6903 19.25 19.9999C19.25 19.3096 18.6904 18.7499 18 18.7499ZM15.25 19.9999C15.25 18.4812 16.4812 17.2499 18 17.2499C19.5188 17.2499 20.75 18.4812 20.75 19.9999C20.75 21.5187 19.5188 22.7499 18 22.7499C16.4812 22.7499 15.25 21.5187 15.25 19.9999Z" fill="#151E28"/>
</svg>
